<svg viewBox="0 0 1000 1000" xmlns="http://www.w3.org/2000/svg" fill-rule="evenodd" clip-rule="evenodd" stroke-linejoin="round" stroke-miterlimit="2">
  <path d="M890.7 946.8a53.2 53.2 0 01-53.2 53.2H301a53.2 53.2 0 01-53.2-53.2V562.5a53.2 53.2 0 00-53.2-53.2h-32.1a53.2 53.2 0 01-53.2-53.2V53.2A53.2 53.2 0 01162.5 0h675a53.2 53.2 0 0153.2 53.2v893.6z" fill="#303030"/>
  <path d="M674.8 915.8c40 0 79.9.3 119.8 0 8.4-.1 15.9-7.2 16-16v-26.2c-.1-8.4-7.4-16-16.2-16h-29.5v-7.8h29.8c12.4.3 23.4 11 23.7 23.7v26a24.6 24.6 0 01-24 24H674.8l20.5 13.7-4.3 6.4-31.1-20.7c-1.6-1-1.5-1.5-1.7-2.3-.3-1.5 0-3 1.7-4.1l31.1-20.7 4.3 6.4-20.5 13.6z" fill="#fff"/>
  <path d="M253.8 294.3V127.5h36.8V311c0 13.2.4 22.6 1.1 28.2.7 5.6 2 10 3.8 13a37.6 37.6 0 0016.8 16.1 83.6 83.6 0 0031.5 5.4c10.5 0 24.3-1.8 31.6-5.4 7.2-3.6 12.8-9 16.8-16.1 1.8-3 3.1-7.3 3.8-12.9.8-5.6 1.1-14.9 1.1-27.9V127.5h36.6v166.8c0 27.6-1.7 47.3-5.1 59a61.4 61.4 0 01-17.9 28.9 78.8 78.8 0 01-27.4 16 140 140 0 01-39.5 5.2c-12.7 0-29.1-1.8-39.4-5.3a80.7 80.7 0 01-27.5-16 61.4 61.4 0 01-17.8-29c-3.5-12-5.3-31.5-5.3-58.8zM551.4 127.5h206.4v30.8h-84.6v239.8h-36.8V158.3h-85v-30.8z" fill="#fff" fill-rule="nonzero"/>
  <path fill="#fff" d="M369.9 716.8h63.8V790h-63.8z"/>
  <path d="M745.4 775.1c-9.3 5-18.9 8.7-28.6 11.2-9.8 2.5-20.2 3.7-31.2 3.7-34.7 0-61.6-12.3-80.7-36.8-19.2-24.5-28.8-59-28.8-103.5 0-44.2 9.7-78.7 29-103.4 19.2-24.7 46-37 80.5-37a126.7 126.7 0 0159.8 14.8v37.6c-9-7.4-18.6-13-28.8-16.9a87.4 87.4 0 00-31-5.8c-23.8 0-41.6 9.2-53.5 27.5-11.8 18.4-17.7 46.1-17.7 83.2 0 37 5.9 64.7 17.7 83 11.9 18.4 29.7 27.6 53.5 27.6 10.6 0 21-2 31.3-5.8a99 99 0 0028.5-16.9v37.5z" fill="#fff" fill-rule="nonzero"/>
</svg>
